<svg xmlns="http://www.w3.org/2000/svg" xmlns:xlink="http://www.w3.org/1999/xlink" width="500" zoomAndPan="magnify" viewBox="0 0 375 374.999991" height="500" preserveAspectRatio="xMidYMid meet" version="1.0"><defs><clipPath id="3d13490ca7"><path d="M 171 257 L 200 257 L 200 262.5 L 171 262.5 Z M 171 257 " clip-rule="nonzero"/></clipPath><clipPath id="def81ba58d"><path d="M 185 112.5 L 190 112.5 L 190 125 L 185 125 Z M 185 112.5 " clip-rule="nonzero"/></clipPath><clipPath id="10705c333c"><path d="M 112.5 185 L 125 185 L 125 190 L 112.5 190 Z M 112.5 185 " clip-rule="nonzero"/></clipPath><clipPath id="1cb1c72ebd"><path d="M 250 185 L 262.5 185 L 262.5 190 L 250 190 Z M 250 185 " clip-rule="nonzero"/></clipPath></defs><path fill="#ff3366" d="M 201.5625 248.4375 L 168.75 248.4375 C 167.460938 248.4375 166.40625 249.492188 166.40625 250.78125 C 166.40625 252.070312 167.460938 253.125 168.75 253.125 L 201.5625 253.125 C 202.851562 253.125 203.90625 252.070312 203.90625 250.78125 C 203.90625 249.492188 202.851562 248.4375 201.5625 248.4375 Z M 201.5625 248.4375 " fill-opacity="1" fill-rule="nonzero"/><g clip-path="url(#3d13490ca7)"><path fill="#ff3366" d="M 196.875 257.8125 L 173.4375 257.8125 C 172.148438 257.8125 171.09375 258.867188 171.09375 260.15625 C 171.09375 261.445312 172.148438 262.5 173.4375 262.5 L 196.875 262.5 C 198.164062 262.5 199.21875 261.445312 199.21875 260.15625 C 199.21875 258.867188 198.164062 257.8125 196.875 257.8125 Z M 196.875 257.8125 " fill-opacity="1" fill-rule="nonzero"/></g><path fill="#ff3366" d="M 183.515625 208.59375 L 186.796875 208.59375 C 189.84375 208.59375 192.421875 206.25 192.421875 203.320312 L 192.421875 200.976562 C 194.0625 200.507812 195.585938 199.804688 197.109375 198.984375 L 198.75 200.625 C 200.742188 202.617188 204.257812 202.5 206.367188 200.390625 L 208.710938 198.046875 C 210.9375 195.820312 211.054688 192.421875 208.945312 190.429688 L 207.304688 188.789062 C 208.125 187.265625 208.710938 185.742188 209.296875 184.101562 L 211.640625 184.101562 C 214.570312 184.101562 216.914062 181.640625 216.914062 178.476562 L 216.914062 175.195312 C 216.914062 172.148438 214.570312 169.570312 211.640625 169.570312 L 209.296875 169.570312 C 208.828125 167.929688 208.125 166.40625 207.304688 164.882812 L 208.945312 163.242188 C 210.9375 161.25 210.820312 157.734375 208.710938 155.625 L 206.367188 153.28125 C 204.140625 151.054688 200.742188 150.9375 198.75 153.046875 L 197.109375 154.6875 C 195.585938 153.867188 194.0625 153.28125 192.421875 152.695312 L 192.421875 150.351562 C 192.421875 147.421875 189.960938 145.078125 186.796875 145.078125 L 183.515625 145.078125 C 180.46875 145.078125 177.890625 147.421875 177.890625 150.351562 L 177.890625 152.695312 C 176.25 153.164062 174.726562 153.867188 173.203125 154.6875 L 171.5625 153.046875 C 169.570312 151.054688 166.054688 151.171875 163.945312 153.28125 L 161.601562 155.625 C 160.546875 156.679688 159.84375 158.203125 159.84375 159.726562 C 159.84375 161.132812 160.3125 162.421875 161.25 163.359375 L 162.890625 165 C 162.070312 166.523438 161.484375 168.046875 160.898438 169.6875 L 158.554688 169.6875 C 155.859375 169.6875 153.515625 172.265625 153.515625 175.3125 L 153.515625 178.59375 C 153.515625 181.640625 155.859375 184.21875 158.789062 184.21875 L 161.132812 184.21875 C 161.601562 185.859375 162.304688 187.382812 163.125 188.90625 L 161.484375 190.546875 C 159.492188 192.539062 159.609375 196.054688 161.71875 198.164062 L 164.0625 200.507812 C 166.289062 202.734375 169.6875 202.851562 171.679688 200.742188 L 173.320312 199.101562 C 174.84375 199.921875 176.367188 200.507812 178.007812 201.09375 L 178.007812 203.4375 C 177.890625 206.25 180.46875 208.59375 183.515625 208.59375 Z M 174.140625 194.179688 L 172.5 193.125 L 168.28125 197.34375 C 168.164062 197.460938 167.578125 197.460938 167.226562 197.109375 L 164.882812 194.765625 C 164.53125 194.414062 164.414062 193.945312 164.648438 193.710938 L 168.867188 189.492188 L 167.8125 187.851562 C 166.523438 185.742188 165.585938 183.515625 165.117188 181.171875 L 164.765625 179.296875 L 158.671875 179.296875 C 158.4375 179.296875 158.085938 178.945312 158.085938 178.359375 L 158.085938 175.078125 C 158.085938 174.492188 158.4375 174.140625 158.671875 174.140625 L 164.765625 174.140625 L 165.117188 172.265625 C 165.585938 169.921875 166.523438 167.695312 167.8125 165.585938 L 168.867188 163.945312 L 164.648438 159.726562 C 164.53125 159.609375 164.53125 159.492188 164.53125 159.492188 C 164.53125 159.257812 164.648438 158.90625 164.882812 158.789062 L 167.226562 156.445312 C 167.578125 156.09375 168.164062 155.976562 168.28125 156.210938 L 172.5 160.429688 L 174.140625 159.375 C 176.132812 158.085938 178.359375 157.148438 180.820312 156.679688 L 182.695312 156.328125 L 182.695312 150.234375 C 182.695312 150 183.046875 149.648438 183.632812 149.648438 L 186.914062 149.648438 C 187.5 149.648438 187.851562 150 187.851562 150.234375 L 187.851562 156.328125 L 189.726562 156.679688 C 192.070312 157.148438 194.296875 158.085938 196.40625 159.375 L 198.046875 160.429688 L 202.265625 156.210938 C 202.382812 156.09375 202.851562 156.09375 203.320312 156.445312 L 205.664062 158.789062 C 206.015625 159.140625 206.132812 159.609375 205.898438 159.84375 L 201.679688 164.0625 L 202.734375 165.703125 C 204.023438 167.695312 204.960938 170.039062 205.429688 172.382812 L 205.78125 174.257812 L 211.757812 174.257812 C 211.992188 174.257812 212.34375 174.609375 212.34375 175.195312 L 212.34375 178.476562 C 212.34375 179.0625 211.992188 179.414062 211.757812 179.414062 L 205.78125 179.414062 L 205.078125 181.289062 C 204.609375 183.632812 203.671875 185.859375 202.382812 187.96875 L 201.328125 189.609375 L 205.546875 193.828125 C 205.664062 193.945312 205.664062 194.414062 205.3125 194.882812 L 202.96875 197.226562 C 202.617188 197.578125 202.148438 197.695312 201.914062 197.460938 L 197.695312 193.242188 L 196.054688 194.296875 C 194.0625 195.585938 191.835938 196.523438 189.375 196.992188 L 187.5 197.34375 L 187.5 203.4375 C 187.5 203.671875 187.148438 204.023438 186.5625 204.023438 L 183.28125 204.023438 C 182.695312 204.023438 182.34375 203.671875 182.34375 203.4375 L 182.34375 197.34375 L 180.820312 196.875 C 178.359375 196.40625 176.132812 195.46875 174.140625 194.179688 Z M 174.140625 194.179688 " fill-opacity="1" fill-rule="nonzero"/><path fill="#ff3366" d="M 197.460938 176.953125 C 197.460938 170.15625 191.953125 164.648438 185.15625 164.648438 C 178.359375 164.648438 172.851562 170.15625 172.851562 176.953125 C 172.851562 183.75 178.359375 189.257812 185.15625 189.257812 C 191.953125 189.257812 197.460938 183.75 197.460938 176.953125 Z M 177.539062 176.953125 C 177.539062 172.734375 180.9375 169.335938 185.15625 169.335938 C 189.375 169.335938 192.773438 172.734375 192.773438 176.953125 C 192.773438 181.171875 189.375 184.570312 185.15625 184.570312 C 180.9375 184.570312 177.539062 181.171875 177.539062 176.953125 Z M 177.539062 176.953125 " fill-opacity="1" fill-rule="nonzero"/><g clip-path="url(#def81ba58d)"><path fill="#ff3366" d="M 187.5 124.21875 C 188.789062 124.21875 189.84375 123.164062 189.84375 121.875 L 189.84375 114.84375 C 189.84375 113.554688 188.789062 112.5 187.5 112.5 C 186.210938 112.5 185.15625 113.554688 185.15625 114.84375 L 185.15625 121.875 C 185.15625 123.164062 186.210938 124.21875 187.5 124.21875 Z M 187.5 124.21875 " fill-opacity="1" fill-rule="nonzero"/></g><path fill="#ff3366" d="M 160.195312 127.734375 C 160.546875 128.671875 161.484375 129.140625 162.304688 129.140625 C 162.65625 129.140625 162.890625 129.140625 163.242188 128.90625 C 164.414062 128.4375 165 127.03125 164.53125 125.859375 L 161.835938 119.53125 C 161.367188 118.359375 159.960938 117.773438 158.789062 118.242188 C 157.617188 118.710938 157.03125 120.117188 157.5 121.289062 Z M 160.195312 127.734375 " fill-opacity="1" fill-rule="nonzero"/><path fill="#ff3366" d="M 139.453125 142.734375 C 139.921875 143.203125 140.507812 143.4375 141.09375 143.4375 C 141.679688 143.4375 142.265625 143.203125 142.734375 142.734375 C 143.671875 141.796875 143.671875 140.390625 142.734375 139.453125 L 137.8125 134.53125 C 136.875 133.59375 135.46875 133.59375 134.53125 134.53125 C 133.59375 135.46875 133.59375 136.875 134.53125 137.8125 Z M 139.453125 142.734375 " fill-opacity="1" fill-rule="nonzero"/><path fill="#ff3366" d="M 127.734375 160.195312 L 121.289062 157.5 C 120.117188 157.03125 118.710938 157.617188 118.242188 158.789062 C 117.773438 159.960938 118.359375 161.367188 119.53125 161.835938 L 125.976562 164.53125 C 126.328125 164.648438 126.5625 164.765625 126.914062 164.765625 C 127.851562 164.765625 128.671875 164.179688 129.023438 163.359375 C 129.492188 162.070312 128.90625 160.664062 127.734375 160.195312 Z M 127.734375 160.195312 " fill-opacity="1" fill-rule="nonzero"/><g clip-path="url(#10705c333c)"><path fill="#ff3366" d="M 124.21875 187.5 C 124.21875 186.210938 123.164062 185.15625 121.875 185.15625 L 114.84375 185.15625 C 113.554688 185.15625 112.5 186.210938 112.5 187.5 C 112.5 188.789062 113.554688 189.84375 114.84375 189.84375 L 121.875 189.84375 C 123.164062 189.84375 124.21875 188.789062 124.21875 187.5 Z M 124.21875 187.5 " fill-opacity="1" fill-rule="nonzero"/></g><path fill="#ff3366" d="M 125.976562 210.46875 L 119.53125 213.164062 C 118.359375 213.632812 117.773438 215.039062 118.242188 216.210938 C 118.59375 217.148438 119.53125 217.617188 120.351562 217.617188 C 120.703125 217.617188 120.9375 217.617188 121.289062 217.382812 L 127.734375 214.6875 C 128.90625 214.21875 129.492188 212.8125 129.023438 211.640625 C 128.554688 210.46875 127.148438 210 125.976562 210.46875 Z M 125.976562 210.46875 " fill-opacity="1" fill-rule="nonzero"/><path fill="#ff3366" d="M 139.453125 232.265625 L 134.53125 237.1875 C 133.59375 238.125 133.59375 239.53125 134.53125 240.46875 C 135 240.9375 135.585938 241.171875 136.171875 241.171875 C 136.757812 241.171875 137.34375 240.9375 137.8125 240.46875 L 142.734375 235.546875 C 143.671875 234.609375 143.671875 233.203125 142.734375 232.265625 C 141.796875 231.328125 140.390625 231.328125 139.453125 232.265625 Z M 139.453125 232.265625 " fill-opacity="1" fill-rule="nonzero"/><path fill="#ff3366" d="M 235.546875 232.265625 C 234.609375 231.328125 233.203125 231.328125 232.265625 232.265625 C 231.328125 233.203125 231.328125 234.609375 232.265625 235.546875 L 237.1875 240.46875 C 237.65625 240.9375 238.242188 241.171875 238.828125 241.171875 C 239.414062 241.171875 240 240.9375 240.46875 240.46875 C 241.40625 239.53125 241.40625 238.125 240.46875 237.1875 Z M 235.546875 232.265625 " fill-opacity="1" fill-rule="nonzero"/><path fill="#ff3366" d="M 255.46875 213.164062 L 249.023438 210.46875 C 247.851562 210 246.445312 210.585938 245.976562 211.757812 C 245.507812 212.929688 246.09375 214.335938 247.265625 214.804688 L 253.710938 217.5 C 254.0625 217.617188 254.296875 217.734375 254.648438 217.734375 C 255.585938 217.734375 256.40625 217.148438 256.757812 216.328125 C 257.34375 215.039062 256.757812 213.632812 255.46875 213.164062 Z M 255.46875 213.164062 " fill-opacity="1" fill-rule="nonzero"/><g clip-path="url(#1cb1c72ebd)"><path fill="#ff3366" d="M 260.15625 185.15625 L 253.125 185.15625 C 251.835938 185.15625 250.78125 186.210938 250.78125 187.5 C 250.78125 188.789062 251.835938 189.84375 253.125 189.84375 L 260.15625 189.84375 C 261.445312 189.84375 262.5 188.789062 262.5 187.5 C 262.5 186.210938 261.445312 185.15625 260.15625 185.15625 Z M 260.15625 185.15625 " fill-opacity="1" fill-rule="nonzero"/></g><path fill="#ff3366" d="M 248.085938 164.765625 C 248.4375 164.765625 248.671875 164.765625 249.023438 164.53125 L 255.46875 161.835938 C 256.640625 161.367188 257.226562 159.960938 256.757812 158.789062 C 256.289062 157.617188 254.882812 157.03125 253.710938 157.5 L 247.265625 160.195312 C 246.09375 160.664062 245.507812 162.070312 245.976562 163.242188 C 246.328125 164.179688 247.265625 164.765625 248.085938 164.765625 Z M 248.085938 164.765625 " fill-opacity="1" fill-rule="nonzero"/><path fill="#ff3366" d="M 237.1875 134.414062 L 232.265625 139.335938 C 231.328125 140.273438 231.328125 141.679688 232.265625 142.617188 C 232.734375 143.085938 233.320312 143.320312 233.90625 143.320312 C 234.492188 143.320312 235.078125 143.085938 235.546875 142.617188 L 240.46875 137.695312 C 241.40625 136.757812 241.40625 135.351562 240.46875 134.414062 C 239.53125 133.476562 238.125 133.59375 237.1875 134.414062 Z M 237.1875 134.414062 " fill-opacity="1" fill-rule="nonzero"/><path fill="#ff3366" d="M 211.757812 129.023438 C 212.109375 129.140625 212.34375 129.257812 212.695312 129.257812 C 213.632812 129.257812 214.453125 128.671875 214.804688 127.851562 L 217.5 121.40625 C 217.96875 120.234375 217.382812 118.828125 216.210938 118.359375 C 215.039062 117.890625 213.632812 118.476562 213.164062 119.648438 L 210.46875 126.09375 C 210 127.148438 210.46875 128.554688 211.757812 129.023438 Z M 211.757812 129.023438 " fill-opacity="1" fill-rule="nonzero"/><path fill="#ff3366" d="M 231.210938 204.375 C 230.15625 202.734375 230.390625 201.679688 230.507812 201.328125 L 232.734375 198.632812 C 233.554688 197.695312 233.4375 196.289062 232.5 195.351562 C 232.148438 195.117188 231.914062 194.765625 231.796875 194.648438 C 232.734375 193.710938 233.320312 192.773438 233.4375 191.71875 C 233.554688 190.664062 233.203125 189.84375 232.851562 189.375 L 231.445312 186.679688 C 231.328125 186.328125 231.445312 186.09375 231.445312 185.976562 C 231.5625 185.859375 231.914062 185.742188 232.148438 185.742188 C 232.382812 185.742188 232.5 185.742188 232.734375 185.625 C 236.367188 184.6875 238.359375 183.164062 239.0625 181.054688 C 239.53125 179.296875 238.828125 177.773438 238.125 176.835938 L 227.578125 161.71875 C 226.757812 160.546875 226.40625 159.023438 226.054688 157.5 L 226.054688 157.265625 C 225.9375 156.679688 225.703125 155.976562 225.585938 155.390625 C 219.609375 134.53125 197.226562 126.5625 178.242188 129.375 C 153.984375 133.125 135.9375 153.984375 135.9375 178.125 C 135.9375 190.078125 140.507812 202.382812 148.59375 211.757812 C 159.375 224.296875 160.078125 227.929688 161.835938 237.65625 L 162.1875 239.414062 C 162.65625 242.109375 164.53125 243.867188 166.757812 243.867188 L 187.5 243.867188 C 188.789062 243.867188 189.84375 242.8125 189.84375 241.523438 L 189.84375 215.625 C 189.84375 214.335938 188.789062 213.28125 187.5 213.28125 C 186.210938 213.28125 185.15625 214.335938 185.15625 215.625 L 185.15625 239.0625 L 166.992188 239.0625 C 166.875 238.945312 166.875 238.710938 166.757812 238.476562 L 166.40625 236.71875 C 164.648438 226.757812 163.828125 222.1875 152.109375 208.59375 C 144.84375 200.15625 140.625 189.023438 140.625 178.125 C 140.625 156.328125 157.03125 137.460938 178.710938 134.179688 C 195.585938 131.601562 215.507812 138.632812 220.78125 156.796875 C 220.898438 157.382812 221.132812 157.96875 221.25 158.4375 L 221.25 158.671875 C 221.71875 160.546875 222.1875 162.65625 223.476562 164.53125 L 234.140625 179.648438 C 234.140625 179.765625 234.257812 179.765625 234.257812 179.882812 C 234.023438 180.117188 233.320312 180.585938 231.5625 181.054688 C 230.742188 181.171875 228.75 181.40625 227.578125 183.046875 C 226.875 183.984375 226.171875 185.507812 226.875 187.96875 C 226.875 188.203125 226.992188 188.320312 227.109375 188.554688 L 228.515625 191.25 C 228.398438 191.367188 228.046875 191.71875 227.578125 191.953125 C 227.34375 192.070312 227.109375 192.304688 226.875 192.65625 C 226.054688 193.945312 226.289062 195.46875 227.695312 197.226562 L 226.523438 198.632812 C 226.40625 198.75 226.289062 198.867188 226.289062 198.984375 C 226.171875 199.21875 224.648438 202.265625 226.875 206.25 C 226.757812 207.773438 226.40625 210.703125 224.765625 212.34375 C 223.945312 213.164062 222.773438 213.515625 221.367188 213.398438 C 221.367188 213.398438 221.25 213.398438 221.25 213.398438 L 211.640625 213.398438 C 207.1875 213.398438 205.429688 218.90625 204.609375 221.601562 L 204.492188 221.953125 C 202.851562 227.109375 202.265625 232.851562 202.734375 239.179688 L 198.046875 239.179688 C 196.757812 239.179688 195.703125 240.234375 195.703125 241.523438 C 195.703125 242.8125 196.757812 243.867188 198.046875 243.867188 L 203.90625 243.867188 C 204.84375 243.867188 205.78125 243.515625 206.367188 242.695312 C 207.070312 241.875 207.421875 240.820312 207.421875 239.765625 C 206.835938 233.671875 207.304688 228.164062 208.828125 223.359375 L 208.945312 223.007812 C 210.46875 218.320312 211.40625 218.085938 211.523438 218.085938 L 221.015625 218.085938 C 223.710938 218.203125 226.171875 217.382812 227.929688 215.625 C 231.5625 212.109375 231.445312 206.25 231.445312 205.546875 C 231.5625 205.078125 231.445312 204.726562 231.210938 204.375 Z M 231.210938 204.375 " fill-opacity="1" fill-rule="nonzero"/></svg>