<svg xmlns="http://www.w3.org/2000/svg" xmlns:xlink="http://www.w3.org/1999/xlink" width="500" zoomAndPan="magnify" viewBox="0 0 375 374.999991" height="500" preserveAspectRatio="xMidYMid meet" version="1.0"><defs><clipPath id="c1cea905da"><path d="M 113 113.34375 L 262.5 113.34375 L 262.5 261.84375 L 113 261.84375 Z M 113 113.34375 " clip-rule="nonzero"/></clipPath></defs><g clip-path="url(#c1cea905da)"><path fill="#ff3366" d="M 188.625 148.417969 C 189.546875 147.601562 190.964844 147.683594 191.789062 148.609375 C 192.605469 149.527344 192.523438 150.945312 191.597656 151.765625 L 186.789062 156.039062 C 185.875 156.855469 184.457031 156.773438 183.632812 155.855469 C 182.808594 154.929688 182.898438 153.515625 183.816406 152.691406 Z M 251.300781 151.765625 C 250.378906 150.941406 250.292969 149.527344 251.109375 148.609375 C 251.9375 147.683594 253.351562 147.601562 254.277344 148.417969 L 259.082031 152.691406 C 260 153.515625 260.082031 154.929688 259.265625 155.855469 C 258.441406 156.773438 257.023438 156.855469 256.109375 156.039062 Z M 254.277344 129.4375 C 253.355469 130.261719 251.9375 130.179688 251.113281 129.253906 C 250.296875 128.328125 250.378906 126.914062 251.304688 126.097656 L 256.113281 121.824219 C 257.027344 121 258.445312 121.082031 259.269531 122.007812 C 260.085938 122.933594 260.003906 124.347656 259.085938 125.164062 Z M 253.164062 140.824219 C 251.933594 140.824219 250.925781 139.816406 250.925781 138.582031 C 250.925781 137.339844 251.933594 136.34375 253.164062 136.34375 L 260.167969 136.34375 C 261.398438 136.34375 262.410156 137.339844 262.410156 138.582031 C 262.410156 139.820312 261.398438 140.824219 260.167969 140.824219 Z M 191.601562 126.097656 C 192.523438 126.914062 192.609375 128.328125 191.792969 129.253906 C 190.964844 130.179688 189.550781 130.261719 188.625 129.4375 L 183.820312 125.164062 C 182.902344 124.347656 182.8125 122.933594 183.636719 122.007812 C 184.460938 121.082031 185.878906 121 186.792969 121.824219 Z M 189.742188 136.34375 C 190.972656 136.34375 191.980469 137.339844 191.980469 138.582031 C 191.980469 139.820312 190.972656 140.824219 189.742188 140.824219 L 182.738281 140.824219 C 181.503906 140.824219 180.496094 139.816406 180.496094 138.582031 C 180.496094 137.339844 181.503906 136.34375 182.738281 136.34375 Z M 227.6875 126.570312 C 229.492188 127.253906 231.15625 128.214844 232.632812 129.429688 L 236.101562 128.285156 C 237.167969 127.933594 238.316406 128.429688 238.804688 129.410156 L 242.042969 135.027344 C 242.585938 135.960938 242.378906 137.132812 241.597656 137.820312 L 238.882812 140.246094 C 239.039062 141.199219 239.121094 142.148438 239.121094 143.09375 L 239.113281 143.09375 C 239.113281 144.054688 239.03125 145.007812 238.875 145.941406 L 241.59375 148.375 C 242.445312 149.125 242.585938 150.394531 241.949219 151.3125 L 238.730469 156.890625 C 238.195312 157.824219 237.078125 158.226562 236.101562 157.898438 L 236.101562 157.90625 L 232.632812 156.765625 C 231.15625 157.980469 229.492188 158.941406 227.6875 159.613281 L 226.953125 163.179688 C 226.734375 164.242188 225.800781 164.964844 224.765625 164.964844 L 218.136719 164.964844 C 217.003906 164.964844 216.058594 164.121094 215.914062 163.023438 L 215.214844 159.609375 C 213.410156 158.929688 211.75 157.976562 210.273438 156.761719 L 206.804688 157.90625 C 205.71875 158.261719 204.554688 157.742188 204.085938 156.722656 L 200.867188 151.144531 C 200.332031 150.21875 200.539062 149.058594 201.308594 148.371094 L 204.023438 145.949219 C 203.71875 144.042969 203.71875 142.144531 204.023438 140.242188 L 201.308594 137.816406 C 200.476562 137.074219 200.332031 135.839844 200.917969 134.925781 L 204.179688 129.292969 C 204.710938 128.355469 205.828125 127.957031 206.808594 128.285156 L 210.273438 129.425781 C 211.753906 128.210938 213.414062 127.25 215.21875 126.566406 L 215.957031 123.003906 C 216.171875 121.949219 217.109375 121.222656 218.140625 121.222656 L 218.140625 121.21875 L 224.773438 121.21875 C 225.90625 121.21875 226.851562 122.070312 226.988281 123.167969 Z M 228.042969 131.660156 C 227.152344 131.152344 226.214844 130.746094 225.238281 130.453125 C 224.429688 130.253906 223.757812 129.609375 223.578125 128.738281 L 222.941406 125.699219 L 219.957031 125.699219 L 219.324219 128.738281 C 219.160156 129.519531 218.582031 130.191406 217.761719 130.425781 C 215.921875 130.960938 213.761719 132.128906 212.425781 133.472656 C 211.851562 134.097656 210.9375 134.363281 210.085938 134.078125 L 207.128906 133.101562 L 205.640625 135.6875 L 207.953125 137.746094 L 207.945312 137.753906 C 208.542969 138.277344 208.835938 139.113281 208.632812 139.949219 C 208.1875 141.773438 208.109375 144.296875 208.597656 146.089844 C 208.851562 146.90625 208.625 147.832031 207.953125 148.429688 L 205.632812 150.5 L 207.128906 153.074219 L 210.085938 152.105469 C 210.847656 151.859375 211.707031 152.023438 212.328125 152.625 C 213.730469 153.96875 215.773438 155.21875 217.660156 155.726562 C 218.46875 155.921875 219.140625 156.578125 219.324219 157.449219 L 219.957031 160.480469 L 222.941406 160.480469 L 223.578125 157.449219 C 223.738281 156.667969 224.320312 155.996094 225.136719 155.761719 C 226.976562 155.230469 229.140625 154.058594 230.472656 152.714844 C 231.046875 152.089844 231.960938 151.828125 232.8125 152.109375 L 235.769531 153.078125 L 237.269531 150.5 L 234.945312 148.433594 C 234.355469 147.898438 234.066406 147.066406 234.261719 146.238281 C 234.515625 145.203125 234.644531 144.140625 234.644531 143.089844 L 234.632812 143.089844 C 234.632812 142.066406 234.515625 141.058594 234.296875 140.085938 C 234.046875 139.269531 234.273438 138.355469 234.941406 137.746094 L 237.253906 135.691406 L 235.765625 133.105469 L 232.808594 134.082031 L 232.808594 134.074219 C 232.046875 134.328125 231.1875 134.152344 230.570312 133.566406 C 229.8125 132.839844 228.960938 132.195312 228.042969 131.660156 Z M 221.449219 132.367188 C 227.371094 132.367188 232.179688 137.175781 232.179688 143.09375 C 232.179688 149.015625 227.371094 153.816406 221.449219 153.816406 C 215.535156 153.816406 210.722656 149.015625 210.722656 143.09375 C 210.722656 137.175781 215.53125 132.367188 221.449219 132.367188 Z M 225.863281 138.683594 C 221.945312 134.753906 215.203125 137.550781 215.203125 143.09375 C 215.203125 148.644531 221.945312 151.429688 225.863281 147.507812 C 228.308594 145.070312 228.308594 141.113281 225.863281 138.683594 Z M 209.671875 171.453125 L 233.230469 171.453125 C 235.066406 167.015625 237.351562 163.070312 239.519531 159.339844 C 242.984375 153.371094 246.113281 147.972656 246.113281 142.496094 C 246.113281 128.867188 235.074219 117.828125 221.449219 117.828125 C 207.828125 117.828125 196.789062 128.871094 196.789062 142.496094 C 196.789062 147.972656 199.917969 153.371094 203.382812 159.339844 C 205.550781 163.066406 207.839844 167.015625 209.671875 171.453125 Z M 237.578125 172.648438 C 239.066406 173.765625 240 175.527344 240 177.476562 L 240 179.136719 C 240 181.550781 238.546875 183.691406 236.417969 184.644531 L 236.417969 185.144531 C 236.417969 188.535156 234.25 191.613281 231.070312 192.539062 L 230.21875 195.675781 C 228.40625 202.355469 214.632812 202.835938 212.683594 195.675781 L 211.832031 192.539062 C 208.660156 191.613281 206.488281 188.535156 206.488281 185.144531 L 206.488281 184.644531 C 204.347656 183.691406 202.902344 181.550781 202.902344 179.136719 L 202.902344 177.476562 C 202.902344 175.527344 203.839844 173.765625 205.328125 172.648438 C 203.640625 168.683594 201.523438 165.039062 199.511719 161.574219 C 195.730469 155.050781 192.308594 149.152344 192.308594 142.496094 C 192.308594 126.390625 205.351562 113.34375 221.449219 113.34375 C 237.550781 113.34375 250.597656 126.390625 250.597656 142.496094 C 250.597656 149.15625 247.175781 155.050781 243.394531 161.574219 C 241.378906 165.039062 239.265625 168.683594 237.578125 172.648438 Z M 231.9375 185.160156 L 210.96875 185.160156 C 210.980469 186.800781 212.140625 188.324219 213.746094 188.324219 L 229.15625 188.324219 C 230.765625 188.324219 231.925781 186.800781 231.9375 185.160156 Z M 233.976562 175.921875 L 208.925781 175.921875 C 208.082031 175.921875 207.386719 176.632812 207.386719 177.476562 L 207.386719 179.136719 C 207.386719 179.980469 208.082031 180.679688 208.925781 180.679688 L 233.976562 180.679688 C 234.820312 180.679688 235.515625 179.980469 235.515625 179.136719 L 235.515625 177.476562 C 235.515625 176.632812 234.820312 175.921875 233.976562 175.921875 Z M 226.355469 192.804688 L 216.546875 192.804688 L 217.003906 194.503906 C 217.402344 195.9375 219.886719 196.398438 221.359375 196.390625 C 222.835938 196.382812 225.542969 195.816406 225.902344 194.503906 Z M 188.539062 242.953125 L 199.78125 242.953125 C 199.945312 242.933594 200.085938 242.863281 200.195312 242.769531 C 200.585938 242.425781 200.769531 241.597656 200.160156 241.183594 C 196.722656 238.84375 192.660156 237.535156 188.484375 237.453125 Z M 204.9375 242.953125 L 234.972656 242.953125 L 247.757812 195.277344 C 248.074219 194.089844 249.300781 193.382812 250.496094 193.699219 L 259.75 196.175781 C 260.945312 196.492188 261.652344 197.730469 261.335938 198.917969 L 246.214844 255.359375 C 245.941406 256.359375 245.042969 257.023438 244.054688 257.023438 L 186.339844 257.023438 C 185.105469 257.023438 184.097656 256.023438 184.097656 254.78125 L 184.097656 251.171875 L 156.542969 251.171875 L 155.476562 259.609375 C 155.367188 260.761719 154.367188 261.660156 153.191406 261.613281 L 116.839844 260.359375 C 115.714844 260.40625 114.707031 259.597656 114.535156 258.457031 C 112.585938 245.628906 115.378906 228.164062 120.222656 215.960938 C 123.925781 206.636719 129.203125 199.1875 135.851562 196.667969 L 143.101562 188.292969 C 134.382812 179.484375 130.601562 160.414062 139.128906 151.40625 C 149.667969 140.292969 158.996094 150.414062 176.824219 140.40625 C 178.121094 139.679688 179.855469 140.371094 180.136719 142.058594 C 180.925781 146.023438 180.84375 150.050781 179.9375 153.882812 C 179.09375 157.476562 177.535156 160.902344 175.308594 163.933594 C 175.21875 164.28125 177.976562 182.351562 174.65625 191.597656 C 172.015625 198.980469 164.167969 200.050781 157.375 198.039062 L 154.660156 203.390625 C 156.710938 208.035156 157.289062 213.507812 158.125 221.433594 C 158.363281 223.585938 158.605469 225.925781 158.933594 228.695312 L 186.429688 231.324219 C 187.375 231.414062 188.148438 232.085938 188.378906 232.976562 C 193.496094 233.039062 198.457031 234.617188 202.6875 237.496094 C 204.527344 238.75 205.316406 240.882812 204.9375 242.953125 Z M 184.09375 246.695312 L 184.003906 235.574219 L 156.851562 232.96875 C 156.34375 232.960938 155.835938 232.769531 155.425781 232.398438 L 144.105469 222.199219 C 143.1875 221.375 143.105469 219.960938 143.929688 219.042969 C 144.765625 218.128906 146.171875 218.054688 147.097656 218.882812 L 154.019531 225.113281 C 153.902344 224.015625 153.792969 222.9375 153.671875 221.902344 C 152.804688 213.703125 152.230469 208.304688 150.023438 204.066406 L 140.417969 200.226562 C 140.082031 200.246094 139.734375 200.28125 139.375 200.335938 C 133.167969 201.292969 128.023438 208.367188 124.359375 217.601562 C 119.941406 228.722656 117.402344 244.210938 118.707031 255.949219 L 151.296875 257.082031 L 152.195312 249.960938 L 133.957031 236.605469 C 132.960938 235.878906 132.742188 234.484375 133.476562 233.484375 C 134.203125 232.488281 135.601562 232.269531 136.597656 233.003906 L 155.296875 246.695312 Z M 236.699219 247.433594 L 188.578125 247.433594 L 188.578125 252.542969 L 242.332031 252.542969 L 256.4375 199.921875 L 251.496094 198.597656 L 238.882812 245.652344 C 238.675781 246.671875 237.777344 247.433594 236.699219 247.433594 Z M 142.21875 196.136719 L 151.445312 199.832031 L 153.195312 196.367188 C 150.535156 195.015625 148.171875 193.199219 146.535156 191.140625 Z M 148.851562 186.285156 L 149.839844 188.097656 C 151.492188 190.339844 154.394531 192.273438 157.585938 193.414062 C 162.097656 195.03125 168.546875 195.417969 170.453125 190.085938 C 172.59375 184.125 171.8125 172.984375 170.945312 165.183594 C 167.5625 164.59375 163.496094 164.402344 161.835938 166.28125 C 160.054688 168.292969 160.988281 172.75 162.28125 176.453125 C 163.167969 179.003906 159.539062 180.699219 158.179688 178.203125 C 155.078125 172.824219 152.472656 169.558594 150.34375 168.3125 C 149.21875 167.660156 148.21875 167.976562 147.355469 169.238281 C 146.566406 172.8125 146.394531 176.214844 146.800781 179.359375 C 147.125 181.832031 147.808594 184.144531 148.851562 186.285156 Z M 139.339844 171.015625 C 139.921875 174.039062 140.9375 177.015625 142.335938 179.671875 C 141.890625 175.953125 142.125 171.996094 143.070312 167.878906 L 143.078125 167.878906 C 143.125 167.660156 143.214844 167.433594 143.34375 167.226562 C 147.269531 160.746094 152.460938 163.25 156.496094 167.886719 C 156.949219 164.558594 158.835938 162.125 162.03125 161.007812 C 164.53125 160.140625 167.863281 160.085938 172.019531 160.835938 C 175.074219 156.4375 176.527344 151.121094 176.136719 145.804688 C 159.410156 153.824219 150.519531 145.878906 142.363281 154.488281 C 138.753906 158.296875 138.207031 165.027344 139.339844 171.015625 Z M 139.339844 171.015625 " fill-opacity="1" fill-rule="nonzero"/></g></svg>