<svg xmlns="http://www.w3.org/2000/svg" xmlns:xlink="http://www.w3.org/1999/xlink" width="500" zoomAndPan="magnify" viewBox="0 0 375 374.999991" height="500" preserveAspectRatio="xMidYMid meet" version="1.0"><defs><clipPath id="dc1664e1c0"><path d="M 123 112.5 L 252.65625 112.5 L 252.65625 262.5 L 123 262.5 Z M 123 112.5 " clip-rule="nonzero"/></clipPath></defs><g clip-path="url(#dc1664e1c0)"><path fill="#ff3366" d="M 158.425781 203.621094 C 158.175781 204.417969 157.441406 204.929688 156.644531 204.929688 C 156.460938 204.929688 156.277344 204.902344 156.089844 204.847656 C 155.109375 204.542969 154.558594 203.496094 154.863281 202.515625 C 157.550781 193.886719 155.101562 188.597656 147.152344 185.878906 C 146.179688 185.546875 145.65625 184.484375 145.992188 183.511719 C 146.324219 182.542969 147.382812 182.019531 148.359375 182.355469 C 158.226562 185.730469 161.707031 193.082031 158.425781 203.621094 Z M 158.421875 166.332031 C 158.519531 166.332031 158.613281 166.324219 158.710938 166.308594 C 169.617188 164.617188 174.6875 158.257812 173.382812 147.910156 C 173.25 146.890625 172.320312 146.171875 171.296875 146.296875 C 170.277344 146.425781 169.554688 147.359375 169.683594 148.378906 C 170.738281 156.710938 167.070312 161.238281 158.140625 162.625 C 157.121094 162.78125 156.425781 163.730469 156.582031 164.75 C 156.726562 165.671875 157.523438 166.332031 158.421875 166.332031 Z M 182.011719 225.335938 C 173.675781 218.109375 165.542969 218.347656 158.492188 226.03125 C 157.796875 226.785156 157.847656 227.96875 158.605469 228.664062 C 158.960938 228.992188 159.414062 229.152344 159.863281 229.152344 C 160.367188 229.152344 160.867188 228.949219 161.234375 228.550781 C 166.914062 222.359375 172.742188 222.234375 179.570312 228.152344 C 180.347656 228.828125 181.523438 228.742188 182.195312 227.96875 C 182.875 227.1875 182.789062 226.011719 182.011719 225.335938 Z M 252.507812 219.632812 C 252.839844 220.210938 252.839844 220.917969 252.507812 221.496094 L 246.800781 231.382812 C 246.46875 231.960938 245.855469 232.3125 245.1875 232.3125 L 233.773438 232.3125 C 233.109375 232.3125 232.492188 231.960938 232.160156 231.382812 L 226.9375 222.34375 L 220.382812 222.34375 C 219.902344 222.34375 219.441406 222.15625 219.09375 221.820312 L 202.140625 205.503906 L 192.328125 205.503906 L 192.328125 222.03125 L 204.054688 222.03125 C 204.566406 222.03125 205.058594 222.242188 205.410156 222.613281 L 216.902344 234.777344 L 217.027344 234.554688 C 217.359375 233.976562 217.976562 233.625 218.644531 233.625 L 230.054688 233.625 C 230.722656 233.625 231.335938 233.976562 231.671875 234.554688 L 237.378906 244.441406 C 237.710938 245.019531 237.710938 245.726562 237.378906 246.304688 L 231.671875 256.191406 C 231.339844 256.769531 230.722656 257.121094 230.054688 257.121094 L 218.644531 257.121094 C 217.976562 257.121094 217.363281 256.769531 217.027344 256.191406 L 211.320312 246.304688 C 210.988281 245.726562 210.988281 245.019531 211.320312 244.441406 L 214.957031 238.144531 L 203.253906 225.757812 L 192.328125 225.757812 L 192.328125 246.515625 C 192.328125 251.191406 190.222656 255.84375 186.691406 258.953125 C 184.085938 261.253906 180.972656 262.472656 177.789062 262.472656 C 177.269531 262.472656 176.746094 262.4375 176.222656 262.371094 C 168.234375 261.363281 163.25 256.320312 162.265625 248.394531 C 161.40625 248.621094 160.523438 248.78125 159.625 248.855469 C 159.125 248.902344 158.628906 248.921875 158.140625 248.921875 C 152.40625 248.921875 147.453125 246.054688 145.535156 244.074219 C 144.082031 242.574219 139.386719 237.125 140.097656 230.191406 C 140.175781 229.402344 140.332031 228.625 140.546875 227.859375 C 138.234375 226.988281 135.949219 225.078125 133.9375 222.292969 C 131.636719 219.113281 130.070312 215.261719 129.851562 212.242188 C 129.292969 204.632812 130.988281 198.902344 135.164062 194.433594 C 131.816406 192.492188 128.957031 189.59375 126.820312 185.894531 C 123.027344 179.332031 122.152344 171.175781 124.539062 164.613281 C 126.363281 159.582031 130.230469 154.980469 135.148438 151.972656 C 135.976562 151.46875 136.917969 150.957031 137.957031 150.488281 C 136.878906 143.578125 139.328125 136.78125 144.644531 132.125 C 147.53125 129.597656 151.027344 127.929688 154.761719 127.203125 C 157.167969 118.84375 163.804688 113.382812 172.355469 112.84375 C 177.3125 112.535156 182.121094 114.3125 185.894531 117.859375 C 189.984375 121.695312 192.328125 127.105469 192.328125 132.699219 L 192.328125 148.582031 L 203.253906 148.582031 L 214.957031 136.195312 L 211.320312 129.898438 C 210.988281 129.320312 210.988281 128.613281 211.320312 128.035156 L 217.027344 118.148438 C 217.359375 117.570312 217.976562 117.214844 218.644531 117.214844 L 230.054688 117.214844 C 230.722656 117.214844 231.335938 117.570312 231.671875 118.148438 L 237.378906 128.035156 C 237.710938 128.613281 237.710938 129.320312 237.378906 129.898438 L 231.671875 139.78125 C 231.339844 140.359375 230.722656 140.714844 230.054688 140.714844 L 218.644531 140.714844 C 217.976562 140.714844 217.363281 140.359375 217.027344 139.78125 L 216.902344 139.5625 L 205.410156 151.726562 C 205.058594 152.097656 204.566406 152.308594 204.054688 152.308594 L 192.328125 152.308594 L 192.328125 168.832031 L 202.140625 168.832031 L 219.09375 152.515625 C 219.441406 152.179688 219.902344 151.996094 220.382812 151.996094 L 226.9375 151.996094 L 232.160156 142.957031 C 232.492188 142.378906 233.105469 142.023438 233.773438 142.023438 L 245.1875 142.023438 C 245.851562 142.023438 246.464844 142.378906 246.800781 142.957031 L 252.507812 152.84375 C 252.839844 153.421875 252.839844 154.128906 252.507812 154.707031 L 246.800781 164.589844 C 246.46875 165.167969 245.855469 165.523438 245.1875 165.523438 L 233.773438 165.523438 C 233.109375 165.523438 232.492188 165.167969 232.160156 164.589844 L 227.039062 155.722656 L 221.136719 155.722656 L 204.183594 172.039062 C 203.835938 172.375 203.371094 172.5625 202.890625 172.5625 L 192.328125 172.5625 L 192.328125 187.746094 L 212.164062 187.746094 L 212.164062 178.570312 C 212.164062 177.914062 212.507812 177.304688 213.074219 176.972656 C 213.636719 176.636719 214.335938 176.621094 214.910156 176.929688 L 235.355469 187.96875 C 235.957031 188.292969 236.332031 188.921875 236.332031 189.609375 C 236.332031 190.292969 235.957031 190.921875 235.355469 191.246094 L 214.910156 202.285156 C 214.632812 202.433594 214.328125 202.507812 214.027344 202.507812 C 213.695312 202.507812 213.363281 202.421875 213.074219 202.246094 C 212.507812 201.910156 212.164062 201.300781 212.164062 200.644531 L 212.164062 191.472656 L 192.328125 191.472656 L 192.328125 201.78125 L 202.890625 201.78125 C 203.371094 201.78125 203.835938 201.96875 204.183594 202.304688 L 221.136719 218.621094 L 227.039062 218.621094 L 232.160156 209.753906 C 232.492188 209.175781 233.105469 208.820312 233.773438 208.820312 L 245.1875 208.820312 C 245.851562 208.820312 246.464844 209.175781 246.800781 209.753906 Z M 215.886719 197.523438 L 230.546875 189.605469 L 215.886719 181.6875 Z M 230.214844 153.769531 L 234.847656 161.792969 L 244.109375 161.792969 L 248.742188 153.769531 L 244.109375 145.746094 L 234.847656 145.746094 Z M 215.085938 128.964844 L 219.71875 136.988281 L 228.980469 136.988281 L 233.613281 128.964844 L 228.980469 120.945312 L 219.71875 120.945312 Z M 215.085938 245.371094 L 219.71875 253.394531 L 228.980469 253.394531 L 233.613281 245.371094 L 228.980469 237.347656 L 219.71875 237.347656 Z M 188.601562 246.511719 L 188.601562 184.777344 C 181.996094 185.601562 176.796875 188.339844 172.746094 193.125 C 172.375 193.558594 171.851562 193.78125 171.324219 193.78125 C 170.898438 193.78125 170.46875 193.636719 170.121094 193.339844 C 169.335938 192.675781 169.238281 191.5 169.902344 190.714844 C 174.617188 185.144531 180.90625 181.890625 188.605469 181.023438 L 188.605469 132.699219 C 188.605469 128.128906 186.691406 123.710938 183.347656 120.574219 C 180.332031 117.742188 176.511719 116.316406 172.589844 116.5625 C 166.1875 116.964844 161.097656 120.8125 158.824219 126.792969 C 160.886719 126.769531 162.976562 127.023438 165.046875 127.566406 C 166.039062 127.832031 166.632812 128.851562 166.371094 129.84375 C 166.105469 130.835938 165.089844 131.429688 164.09375 131.167969 C 157.984375 129.554688 151.632812 130.960938 147.105469 134.925781 C 142.953125 138.5625 140.941406 143.796875 141.539062 149.183594 C 145.199219 148.160156 149.707031 147.796875 154.957031 149.0625 C 155.957031 149.300781 156.574219 150.304688 156.332031 151.308594 C 156.09375 152.308594 155.085938 152.925781 154.085938 152.683594 C 139.84375 149.261719 130.550781 158.964844 128.035156 165.886719 C 126.019531 171.441406 126.789062 178.394531 130.046875 184.03125 C 132.941406 189.046875 137.375 192.3125 142.535156 193.222656 C 143.546875 193.402344 144.222656 194.367188 144.042969 195.378906 C 143.882812 196.285156 143.097656 196.921875 142.210938 196.921875 C 142.101562 196.921875 141.992188 196.910156 141.886719 196.890625 C 140.824219 196.707031 139.789062 196.429688 138.785156 196.085938 C 134.609375 199.953125 133.042969 204.773438 133.566406 211.96875 C 133.894531 216.445312 138.144531 223.0625 142.007812 224.425781 C 143.542969 221.777344 145.953125 219.320312 149.242188 217.085938 C 150.089844 216.507812 151.25 216.726562 151.832031 217.578125 C 152.40625 218.429688 152.1875 219.585938 151.335938 220.167969 C 146.730469 223.300781 144.195312 226.800781 143.808594 230.574219 C 143.261719 235.910156 147.042969 240.277344 148.214844 241.488281 C 149.511719 242.828125 154.101562 245.613281 159.296875 245.148438 C 163.445312 244.785156 166.996094 242.453125 169.84375 238.214844 C 170.417969 237.363281 171.578125 237.136719 172.433594 237.710938 C 173.285156 238.285156 173.511719 239.441406 172.9375 240.296875 C 170.933594 243.269531 168.542969 245.511719 165.871094 246.964844 C 166.238281 251.976562 168.515625 257.648438 176.691406 258.679688 C 179.332031 259.011719 182.011719 258.117188 184.230469 256.164062 C 186.96875 253.742188 188.601562 250.136719 188.601562 246.511719 Z M 248.742188 220.566406 L 244.109375 212.542969 L 234.847656 212.542969 L 230.214844 220.566406 L 234.847656 228.585938 L 244.109375 228.585938 Z M 248.742188 220.566406 " fill-opacity="1" fill-rule="nonzero"/></g></svg>