<svg xmlns="http://www.w3.org/2000/svg" xmlns:xlink="http://www.w3.org/1999/xlink" width="500" zoomAndPan="magnify" viewBox="0 0 375 374.999991" height="500" preserveAspectRatio="xMidYMid meet" version="1.0"><defs><clipPath id="27895c9ac7"><path d="M 117 112.5 L 258 112.5 L 258 260 L 117 260 Z M 117 112.5 " clip-rule="nonzero"/></clipPath></defs><g clip-path="url(#27895c9ac7)"><path fill="#ff3366" d="M 142.660156 229.429688 C 142.660156 234.183594 138.804688 238.035156 134.054688 238.035156 C 129.300781 238.035156 125.449219 234.179688 125.449219 229.429688 C 125.449219 224.675781 129.300781 220.824219 134.054688 220.824219 C 138.804688 220.824219 142.660156 224.675781 142.660156 229.429688 Z M 187.5 129.695312 C 192.253906 129.695312 196.105469 125.84375 196.105469 121.09375 C 196.105469 116.339844 192.253906 112.488281 187.5 112.488281 C 182.746094 112.488281 178.894531 116.339844 178.894531 121.09375 C 178.894531 125.84375 182.746094 129.695312 187.5 129.695312 Z M 229.964844 159.769531 L 229.960938 159.773438 L 239.335938 176.007812 C 239.710938 176.660156 239.789062 177.414062 239.605469 178.097656 C 239.425781 178.761719 239.003906 179.359375 238.382812 179.738281 C 238.34375 179.757812 238.304688 179.78125 238.265625 179.804688 C 237.625 180.15625 236.898438 180.222656 236.230469 180.042969 C 235.546875 179.859375 234.933594 179.417969 234.554688 178.761719 L 225.222656 162.597656 C 225.203125 162.554688 225.175781 162.511719 225.152344 162.472656 C 224.800781 161.832031 224.734375 161.101562 224.914062 160.4375 C 225.089844 159.773438 225.511719 159.175781 226.132812 158.792969 C 226.175781 158.773438 226.214844 158.753906 226.25 158.726562 C 226.890625 158.378906 227.621094 158.3125 228.285156 158.492188 C 228.96875 158.675781 229.585938 159.113281 229.960938 159.765625 Z M 235.488281 177.734375 C 235.882812 178.425781 236.765625 178.660156 237.453125 178.261719 C 238.140625 177.867188 238.375 176.984375 237.976562 176.296875 C 237.582031 175.609375 236.703125 175.375 236.015625 175.773438 C 235.324219 176.167969 235.089844 177.046875 235.488281 177.734375 Z M 204.136719 146.042969 C 202.480469 138.375 195.660156 132.628906 187.5 132.628906 C 179.339844 132.628906 172.519531 138.375 170.863281 146.042969 C 170.667969 146.960938 171.359375 147.816406 172.296875 147.816406 L 202.703125 147.816406 C 203.640625 147.816406 204.332031 146.960938 204.136719 146.042969 Z M 158.441406 200 C 158.855469 199.023438 158.890625 197.871094 158.21875 196.578125 C 155.710938 191.746094 156.03125 189.535156 158.996094 189.480469 C 160.96875 189.445312 164.65625 191.136719 169.941406 194.1875 L 178.132812 198.917969 C 178.167969 197.855469 178.1875 196.695312 178.195312 195.441406 C 178.078125 195.417969 177.964844 195.375 177.855469 195.3125 L 168.652344 190 C 168.113281 189.6875 167.929688 188.996094 168.242188 188.457031 C 168.554688 187.917969 169.246094 187.734375 169.785156 188.046875 L 178.195312 192.902344 L 178.195312 189.246094 C 177.988281 189.257812 177.773438 189.210938 177.578125 189.097656 L 170.078125 184.769531 C 169.539062 184.457031 169.351562 183.769531 169.664062 183.230469 C 169.972656 182.691406 170.664062 182.503906 171.203125 182.8125 L 178.195312 186.851562 L 178.195312 183.402344 L 170.476562 178.945312 C 169.933594 178.636719 169.75 177.945312 170.058594 177.40625 C 170.371094 176.867188 171.058594 176.679688 171.597656 176.992188 L 178.195312 180.800781 L 178.195312 179.257812 C 178.195312 178.65625 178.328125 178.082031 178.570312 177.566406 L 163.769531 169.023438 L 163.765625 169.023438 C 161.015625 167.433594 158.800781 167.332031 156.632812 167.230469 C 154.648438 167.140625 152.699219 167.050781 150.40625 166.023438 L 143.742188 177.5625 C 147.589844 180.65625 149.984375 187.058594 152.351562 193.398438 C 153.578125 196.683594 154.800781 199.949219 156.1875 202.648438 C 157.121094 201.964844 157.996094 201.0625 158.441406 200 Z M 149.820312 162.527344 L 149.003906 163.941406 C 148.992188 163.960938 148.980469 163.980469 148.96875 164 L 148.964844 164.011719 L 141.308594 177.269531 L 141.300781 177.28125 C 141.285156 177.3125 141.265625 177.339844 141.25 177.371094 L 140.480469 178.707031 C 140.46875 178.722656 140.457031 178.742188 140.445312 178.761719 C 140.066406 179.417969 139.453125 179.859375 138.769531 180.042969 C 138.101562 180.222656 137.375 180.15625 136.734375 179.804688 C 136.695312 179.78125 136.65625 179.761719 136.617188 179.738281 C 135.996094 179.359375 135.574219 178.761719 135.394531 178.097656 C 135.210938 177.414062 135.289062 176.660156 135.664062 176.007812 L 145.003906 159.828125 C 145.015625 159.8125 145.027344 159.792969 145.039062 159.773438 C 145.417969 159.117188 146.03125 158.675781 146.714844 158.492188 C 147.382812 158.3125 148.117188 158.378906 148.757812 158.730469 C 148.773438 158.742188 148.789062 158.75 148.804688 158.761719 C 149.460938 159.136719 149.902344 159.753906 150.085938 160.4375 C 150.269531 161.121094 150.195312 161.875 149.820312 162.527344 Z M 138.988281 175.773438 C 138.296875 175.375 137.417969 175.609375 137.023438 176.296875 C 136.625 176.984375 136.859375 177.867188 137.546875 178.261719 C 138.234375 178.660156 139.117188 178.425781 139.511719 177.734375 C 139.910156 177.046875 139.675781 176.167969 138.988281 175.773438 Z M 240.945312 238.035156 C 245.699219 238.035156 249.550781 234.183594 249.550781 229.429688 C 249.550781 224.675781 245.699219 220.824219 240.945312 220.824219 C 236.195312 220.824219 232.339844 224.675781 232.339844 229.429688 C 232.339844 234.183594 236.195312 238.035156 240.945312 238.035156 Z M 127.472656 218.523438 C 128.671875 218.035156 129.253906 216.671875 128.765625 215.472656 C 120.152344 194.253906 123.6875 169.761719 138.207031 151.820312 C 147.1875 140.730469 159.832031 132.726562 174.300781 129.660156 C 175.566406 129.394531 176.375 128.152344 176.105469 126.886719 C 175.835938 125.621094 174.59375 124.8125 173.328125 125.082031 C 157.796875 128.371094 144.21875 136.960938 134.578125 148.871094 C 118.960938 168.167969 115.160156 194.417969 124.421875 217.230469 C 124.910156 218.429688 126.273438 219.007812 127.472656 218.523438 Z M 200.699219 129.664062 C 215.167969 132.726562 227.8125 140.730469 236.792969 151.820312 C 251.3125 169.761719 254.847656 194.253906 246.234375 215.472656 C 245.75 216.671875 246.328125 218.039062 247.527344 218.523438 C 248.726562 219.007812 250.089844 218.429688 250.578125 217.230469 C 259.839844 194.417969 256.039062 168.167969 240.421875 148.871094 C 230.78125 136.960938 217.203125 128.371094 201.671875 125.082031 C 200.40625 124.8125 199.164062 125.621094 198.894531 126.886719 C 198.625 128.152344 199.433594 129.394531 200.699219 129.664062 Z M 257.582031 254.378906 C 255.925781 246.710938 249.109375 240.964844 240.945312 240.964844 C 232.785156 240.964844 225.964844 246.710938 224.3125 254.378906 C 224.113281 255.296875 224.804688 256.152344 225.742188 256.152344 L 256.148438 256.152344 C 257.089844 256.152344 257.78125 255.296875 257.582031 254.378906 Z M 218.035156 247.1875 C 199.105469 257.621094 175.894531 257.617188 156.964844 247.1875 C 155.832031 246.566406 154.410156 246.980469 153.785156 248.113281 C 153.164062 249.246094 153.578125 250.671875 154.710938 251.292969 C 175.050781 262.5 199.949219 262.5 220.289062 251.292969 C 221.421875 250.671875 221.835938 249.246094 221.214844 248.113281 C 220.589844 246.980469 219.167969 246.566406 218.035156 247.1875 Z M 199.855469 231.464844 C 200.730469 231.464844 201.527344 231.824219 202.105469 232.402344 C 202.683594 232.980469 203.042969 233.777344 203.042969 234.652344 C 203.042969 235.527344 202.683594 236.320312 202.105469 236.898438 C 201.527344 237.476562 200.730469 237.835938 199.855469 237.835938 L 179.035156 237.835938 C 178.160156 237.835938 177.367188 237.476562 176.789062 236.898438 C 176.210938 236.320312 175.851562 235.523438 175.851562 234.648438 C 175.851562 233.777344 176.210938 232.980469 176.789062 232.402344 C 177.367188 231.824219 178.160156 231.464844 179.035156 231.464844 Z M 181.105469 234.652344 C 181.105469 233.769531 180.390625 233.054688 179.507812 233.054688 C 178.625 233.054688 177.910156 233.769531 177.910156 234.652344 C 177.910156 235.53125 178.625 236.246094 179.507812 236.246094 C 180.390625 236.246094 181.105469 235.53125 181.105469 234.652344 Z M 199.699219 188.257812 C 199.210938 188.257812 198.765625 188.460938 198.445312 188.78125 C 198.121094 189.105469 197.921875 189.550781 197.921875 190.039062 L 197.921875 202.605469 C 197.921875 203.230469 197.414062 203.738281 196.789062 203.738281 C 196.164062 203.738281 195.65625 203.230469 195.65625 202.605469 L 195.65625 180.03125 C 195.65625 179.542969 195.457031 179.097656 195.132812 178.777344 C 194.8125 178.453125 194.367188 178.253906 193.878906 178.253906 C 193.390625 178.253906 192.945312 178.453125 192.625 178.777344 C 192.300781 179.097656 192.101562 179.542969 192.101562 180.03125 L 192.101562 199.753906 C 192.101562 200.378906 191.59375 200.886719 190.96875 200.886719 C 190.34375 200.886719 189.835938 200.378906 189.835938 199.753906 L 189.835938 175.980469 C 189.835938 175.492188 189.636719 175.046875 189.3125 174.726562 C 188.992188 174.402344 188.546875 174.203125 188.058594 174.203125 C 187.570312 174.203125 187.125 174.402344 186.804688 174.726562 C 186.480469 175.046875 186.28125 175.492188 186.28125 175.980469 L 186.28125 198.214844 C 186.28125 198.839844 185.773438 199.347656 185.148438 199.347656 C 184.523438 199.347656 184.015625 198.839844 184.015625 198.214844 L 184.015625 179.257812 C 184.015625 178.769531 183.816406 178.328125 183.492188 178.003906 C 183.171875 177.679688 182.726562 177.480469 182.238281 177.480469 C 181.75 177.480469 181.304688 177.679688 180.984375 178.003906 C 180.660156 178.328125 180.460938 178.769531 180.460938 179.257812 L 180.460938 194.65625 C 180.460938 196.972656 180.410156 199.023438 180.300781 200.789062 C 180.304688 200.859375 180.300781 200.929688 180.289062 200.996094 C 180.074219 204.265625 179.644531 206.539062 178.925781 207.734375 C 177.300781 210.4375 175.058594 209.507812 171.878906 204.527344 C 170.988281 203.132812 169.828125 202.511719 168.621094 202.359375 C 167.277344 202.191406 165.84375 202.570312 164.621094 203.125 C 166.457031 206 168.960938 209.035156 171.480469 212.089844 C 176.28125 217.910156 181.128906 223.789062 181.914062 229.199219 L 196.9375 229.199219 C 197.207031 226.386719 198.207031 224.453125 199.226562 222.484375 C 200.339844 220.328125 201.476562 218.128906 201.476562 214.5625 L 201.476562 190.039062 C 201.476562 189.550781 201.277344 189.105469 200.953125 188.78125 C 200.632812 188.460938 200.1875 188.257812 199.699219 188.257812 Z M 134.054688 240.964844 C 125.890625 240.964844 119.074219 246.710938 117.417969 254.378906 C 117.21875 255.296875 117.910156 256.152344 118.851562 256.152344 L 149.257812 256.152344 C 150.195312 256.152344 150.886719 255.296875 150.6875 254.378906 C 149.035156 246.710938 142.214844 240.964844 134.054688 240.964844 Z M 231.257812 177.566406 L 224.59375 166.023438 C 222.300781 167.050781 220.351562 167.140625 218.367188 167.230469 C 216.199219 167.332031 213.980469 167.433594 211.230469 169.023438 L 196.867188 177.316406 C 197.523438 178.035156 197.921875 178.988281 197.921875 180.03125 L 197.921875 180.15625 L 203.402344 176.992188 C 203.941406 176.679688 204.632812 176.867188 204.941406 177.40625 C 205.25 177.945312 205.066406 178.636719 204.527344 178.945312 L 197.921875 182.757812 L 197.921875 186.410156 C 198.386719 186.179688 198.902344 186.039062 199.445312 186.003906 C 199.4375 185.605469 199.640625 185.214844 200.007812 185 L 203.792969 182.816406 C 204.332031 182.503906 205.023438 182.6875 205.335938 183.226562 C 205.648438 183.765625 205.464844 184.457031 204.925781 184.769531 L 201.789062 186.582031 C 202.070312 186.75 202.324219 186.953125 202.554688 187.183594 C 203.046875 187.671875 203.414062 188.289062 203.601562 188.980469 L 205.214844 188.046875 C 205.753906 187.734375 206.445312 187.917969 206.757812 188.457031 C 207.070312 188.996094 206.886719 189.6875 206.347656 190 L 203.742188 191.503906 L 203.742188 194.949219 L 205.058594 194.1875 C 210.34375 191.136719 214.03125 189.445312 216.003906 189.480469 C 218.96875 189.535156 219.289062 191.75 216.78125 196.582031 C 216.113281 197.871094 216.148438 199.023438 216.558594 200 C 217.003906 201.066406 217.878906 201.96875 218.8125 202.652344 C 220.199219 199.953125 221.421875 196.6875 222.648438 193.402344 C 225.015625 187.0625 227.410156 180.65625 231.257812 177.566406 Z M 231.257812 177.566406 " fill-opacity="1" fill-rule="nonzero"/></g></svg>