<svg xmlns="http://www.w3.org/2000/svg" xmlns:xlink="http://www.w3.org/1999/xlink" width="500" zoomAndPan="magnify" viewBox="0 0 375 374.999991" height="500" preserveAspectRatio="xMidYMid meet" version="1.0"><defs><clipPath id="ef9128ab84"><path d="M 123.09375 112.5 L 251 112.5 L 251 262.5 L 123.09375 262.5 Z M 123.09375 112.5 " clip-rule="nonzero"/></clipPath></defs><g clip-path="url(#ef9128ab84)"><path fill="#ff3366" d="M 196.460938 179.8125 C 195.210938 179.8125 194.199219 178.800781 194.199219 177.546875 L 194.199219 175.921875 C 192.550781 175.683594 190.996094 175.195312 189.722656 174.617188 C 188.582031 174.101562 188.082031 172.761719 188.597656 171.621094 C 189.117188 170.484375 190.457031 169.980469 191.597656 170.496094 C 193.691406 171.449219 196.742188 172.011719 198.84375 171.125 C 199.675781 170.761719 200 170.320312 200 170.125 C 200 169.921875 199.683594 169.460938 198.828125 169.070312 C 197.136719 168.339844 194.699219 168.910156 192.367188 167.789062 C 186.335938 164.886719 187.585938 158.292969 194.199219 156.882812 L 194.199219 155.183594 C 194.199219 153.933594 195.210938 152.921875 196.460938 152.921875 C 197.710938 152.921875 198.722656 153.933594 198.722656 155.183594 L 198.722656 156.789062 C 200.378906 157.027344 201.953125 157.511719 203.238281 158.125 C 204.367188 158.660156 204.84375 160.007812 204.308594 161.136719 C 203.773438 162.265625 202.421875 162.746094 201.292969 162.210938 C 199.546875 161.378906 196.214844 160.65625 194.214844 161.589844 C 193.339844 162 193.011719 162.320312 193.007812 162.539062 C 193.003906 162.71875 193.300781 163.226562 194.226562 163.664062 C 195.921875 164.410156 197.507812 163.699219 200.648438 164.925781 C 203.089844 166.015625 204.539062 167.972656 204.523438 170.152344 C 204.507812 173.164062 201.835938 175.242188 198.722656 175.863281 L 198.722656 177.546875 C 198.722656 178.800781 197.710938 179.8125 196.460938 179.8125 Z M 245.378906 221.453125 C 236.972656 229.414062 224.285156 240.328125 213.886719 247.070312 C 206.171875 252.070312 197.984375 256.785156 190.375 257.40625 C 184.078125 257.914062 177.222656 255.46875 170.683594 254.523438 C 160.210938 253.011719 150.078125 253.257812 139.464844 253.324219 L 139.464844 229.609375 C 143.28125 228.707031 147.089844 227.855469 150.917969 226.8125 C 153.863281 226.011719 156.425781 224.726562 158.898438 223.484375 C 163.402344 221.222656 167.289062 219.273438 172.382812 220.808594 L 192.777344 226.957031 C 194.875 227.589844 196.066406 229.808594 195.433594 231.90625 C 194.746094 234.179688 192.332031 234.941406 190.300781 234.511719 C 186.144531 233.632812 180.753906 232.207031 176.890625 231.84375 C 175.1875 231.679688 173.484375 231.726562 171.683594 231.984375 C 170.445312 232.164062 169.585938 233.3125 169.761719 234.546875 C 169.941406 235.785156 171.089844 236.640625 172.324219 236.460938 C 173.765625 236.257812 175.121094 236.21875 176.464844 236.347656 C 180.050781 236.6875 185.40625 238.113281 189.367188 238.941406 C 193.277344 239.753906 197.292969 238.148438 199.140625 234.707031 C 201.707031 234.457031 204.1875 233.941406 206.53125 233.15625 C 215.410156 230.1875 229.316406 222.277344 241.074219 215.652344 C 242.542969 214.824219 244.328125 215.15625 245.402344 216.464844 L 245.667969 216.785156 C 246.804688 218.167969 246.679688 220.21875 245.378906 221.453125 Z M 134.941406 256.453125 C 134.941406 257.117188 134.382812 257.671875 133.722656 257.671875 L 128.964844 257.671875 C 128.304688 257.671875 127.746094 257.117188 127.746094 256.453125 L 127.746094 227.085938 C 127.746094 226.425781 128.304688 225.871094 128.964844 225.871094 L 133.722656 225.871094 C 134.382812 225.871094 134.941406 226.425781 134.941406 227.085938 Z M 167.714844 209.636719 C 162.390625 209.636719 158.082031 213.792969 157.757812 218.992188 C 162.40625 216.683594 167.28125 214.542969 173.6875 216.476562 L 194.082031 222.625 C 197.511719 223.65625 199.804688 226.671875 200.097656 230.035156 C 201.828125 229.789062 203.503906 229.398438 205.097656 228.867188 C 212.34375 226.445312 223.40625 220.390625 233.8125 214.550781 C 230.796875 209.394531 223.773438 207.980469 218.972656 211.828125 C 217.484375 213.023438 215.261719 211.9375 215.292969 210.03125 C 215.371094 205.136719 209.941406 202.191406 205.90625 204.839844 C 204.621094 205.683594 202.875 205.015625 202.480469 203.527344 C 201.316406 199.152344 200.371094 194.5 199.652344 189.664062 C 197.398438 189.765625 195.523438 189.765625 193.273438 189.664062 C 192.554688 194.496094 191.601562 199.152344 190.441406 203.527344 C 190.046875 205.015625 188.304688 205.683594 187.019531 204.839844 C 183.011719 202.207031 177.5625 205.097656 177.632812 210.03125 C 177.660156 211.9375 175.441406 213.023438 173.953125 211.828125 C 172.167969 210.394531 170.011719 209.636719 167.714844 209.636719 Z M 196.460938 119.679688 C 186.367188 138.117188 182.28125 159.21875 183.984375 184.007812 C 192.289062 185.621094 200.664062 185.621094 208.941406 184.007812 C 210.644531 159.21875 206.554688 138.117188 196.460938 119.679688 Z M 173.5625 180.042969 C 173.5625 178.1875 174.1875 176.640625 175.46875 175.308594 L 179.097656 171.539062 C 179.046875 175.929688 179.1875 180.433594 179.527344 185.0625 L 173.5625 191.507812 Z M 217.453125 175.308594 C 218.738281 176.640625 219.359375 178.1875 219.359375 180.042969 L 219.359375 191.507812 L 213.398438 185.0625 C 213.734375 180.433594 213.878906 175.929688 213.828125 171.539062 Z M 249.160156 213.90625 L 248.894531 213.585938 C 246.4375 210.601562 242.214844 209.816406 238.847656 211.714844 L 237.757812 212.328125 C 234.078125 205.929688 225.933594 203.332031 219.234375 206.390625 C 217.398438 201.113281 211.585938 198.164062 206.199219 199.769531 C 205.398438 196.421875 204.722656 192.917969 204.179688 189.3125 C 206.214844 189.082031 208.25 188.757812 210.277344 188.351562 L 219.960938 198.824219 C 221.347656 200.328125 223.882812 199.351562 223.882812 197.289062 L 223.882812 180.042969 C 223.882812 177.007812 222.816406 174.355469 220.714844 172.167969 L 213.585938 164.757812 C 212.441406 145.789062 207.421875 129.039062 198.402344 113.96875 C 197.527344 112.507812 195.394531 112.503906 194.523438 113.96875 C 185.503906 129.039062 180.484375 145.789062 179.339844 164.757812 L 172.210938 172.167969 C 170.105469 174.355469 169.039062 177.007812 169.039062 180.042969 L 169.039062 197.289062 C 169.039062 199.347656 171.570312 200.328125 172.964844 198.824219 L 182.648438 188.347656 C 184.675781 188.757812 186.710938 189.078125 188.75 189.308594 C 188.207031 192.917969 187.53125 196.417969 186.726562 199.769531 C 181.335938 198.164062 175.515625 201.121094 173.6875 206.402344 C 163.457031 201.777344 152.105469 210.066406 153.296875 221.152344 C 152.140625 221.660156 150.953125 222.109375 149.726562 222.449219 C 146.328125 223.375 142.628906 224.222656 139.082031 225.046875 C 138.261719 222.886719 136.171875 221.347656 133.722656 221.347656 L 128.964844 221.347656 C 125.800781 221.347656 123.226562 223.917969 123.226562 227.085938 L 123.226562 256.453125 C 123.226562 259.621094 125.800781 262.199219 128.964844 262.199219 L 133.722656 262.199219 C 136.40625 262.199219 138.65625 260.34375 139.285156 257.855469 C 149.59375 257.742188 160.097656 257.570312 170.039062 259.003906 C 176.929688 260 183.550781 262.5 190.742188 261.914062 C 199.351562 261.214844 208.140625 256.191406 216.347656 250.867188 C 229.757812 242.171875 244.339844 228.671875 248.492188 224.738281 C 251.511719 221.875 251.808594 217.121094 249.160156 213.90625 Z M 249.160156 213.90625 " fill-opacity="1" fill-rule="evenodd"/></g></svg>