<svg xmlns="http://www.w3.org/2000/svg" xmlns:xlink="http://www.w3.org/1999/xlink" width="500" zoomAndPan="magnify" viewBox="0 0 375 374.999991" height="500" preserveAspectRatio="xMidYMid meet" version="1.0"><defs><clipPath id="e4c6df4f77"><path d="M 113 138.5625 L 262.5 138.5625 L 262.5 236 L 113 236 Z M 113 138.5625 " clip-rule="nonzero"/></clipPath></defs><g clip-path="url(#e4c6df4f77)"><path fill="#ff3366" d="M 205 138.78125 L 204.007812 138.78125 C 203.496094 138.785156 202.992188 138.832031 202.488281 138.929688 C 201.988281 139.023438 201.5 139.164062 201.023438 139.351562 C 200.550781 139.539062 200.09375 139.769531 199.664062 140.042969 C 199.230469 140.316406 198.828125 140.625 198.453125 140.972656 C 198.082031 141.320312 197.742188 141.699219 197.441406 142.113281 C 197.136719 142.523438 196.875 142.960938 196.65625 143.417969 C 196.433594 143.878906 196.257812 144.355469 196.125 144.851562 C 195.996094 145.34375 195.910156 145.84375 195.875 146.355469 C 186.148438 150.675781 176.078125 153.933594 165.667969 156.136719 C 155.257812 158.339844 144.730469 159.433594 134.089844 159.417969 L 132.292969 159.417969 C 131.175781 159.417969 130.070312 159.515625 128.972656 159.714844 C 127.878906 159.914062 126.804688 160.207031 125.761719 160.597656 C 124.71875 160.988281 123.714844 161.464844 122.757812 162.035156 C 121.800781 162.605469 120.898438 163.257812 120.058594 163.988281 C 119.21875 164.71875 118.449219 165.519531 117.75 166.386719 C 117.050781 167.257812 116.4375 168.179688 115.902344 169.160156 C 115.371094 170.140625 114.929688 171.160156 114.582031 172.21875 C 114.234375 173.277344 113.980469 174.359375 113.824219 175.460938 C 113.667969 176.566406 113.613281 177.675781 113.65625 178.789062 C 113.699219 179.902344 113.84375 181.003906 114.085938 182.089844 C 114.324219 183.179688 114.660156 184.238281 115.09375 185.265625 C 115.523438 186.292969 116.042969 187.277344 116.648438 188.210938 C 117.257812 189.144531 117.941406 190.019531 118.707031 190.832031 C 119.46875 191.644531 120.300781 192.378906 121.195312 193.042969 C 122.09375 193.707031 123.039062 194.285156 124.039062 194.777344 C 125.039062 195.269531 126.074219 195.671875 127.148438 195.976562 L 141.925781 231.128906 C 142.097656 231.542969 142.3125 231.9375 142.566406 232.308594 C 142.816406 232.683594 143.101562 233.027344 143.421875 233.34375 C 143.742188 233.660156 144.089844 233.941406 144.464844 234.1875 C 144.84375 234.4375 145.238281 234.644531 145.65625 234.816406 C 146.070312 234.984375 146.5 235.113281 146.941406 235.199219 C 147.382812 235.28125 147.828125 235.324219 148.28125 235.320312 C 148.730469 235.320312 149.175781 235.273438 149.617188 235.183594 C 150.054688 235.09375 150.484375 234.960938 150.898438 234.785156 C 151.3125 234.613281 151.707031 234.398438 152.078125 234.148438 C 152.453125 233.894531 152.796875 233.609375 153.113281 233.289062 C 153.429688 232.96875 153.710938 232.621094 153.960938 232.246094 C 154.207031 231.871094 154.417969 231.476562 154.589844 231.058594 C 154.757812 230.644531 154.886719 230.214844 154.972656 229.773438 C 155.058594 229.332031 155.097656 228.886719 155.097656 228.433594 C 155.09375 227.984375 155.050781 227.539062 154.960938 227.097656 C 154.871094 226.660156 154.738281 226.230469 154.5625 225.816406 L 147.257812 208.4375 C 147.863281 208.371094 148.449219 208.246094 149.027344 208.058594 C 149.605469 207.875 150.15625 207.632812 150.6875 207.339844 C 151.214844 207.042969 151.710938 206.699219 152.167969 206.300781 C 152.628906 205.90625 153.046875 205.472656 153.417969 204.992188 C 153.789062 204.515625 154.113281 204.007812 154.382812 203.464844 C 154.652344 202.921875 154.867188 202.359375 155.027344 201.773438 C 155.183594 201.1875 155.28125 200.59375 155.320312 199.988281 C 155.359375 199.382812 155.339844 198.78125 155.257812 198.179688 C 169.339844 200.144531 182.878906 204.011719 195.871094 209.78125 C 195.910156 210.289062 195.996094 210.789062 196.125 211.285156 C 196.257812 211.777344 196.433594 212.253906 196.65625 212.714844 C 196.875 213.175781 197.136719 213.613281 197.441406 214.023438 C 197.742188 214.433594 198.082031 214.8125 198.453125 215.160156 C 198.828125 215.511719 199.230469 215.820312 199.664062 216.09375 C 200.09375 216.363281 200.550781 216.59375 201.023438 216.78125 C 201.5 216.96875 201.988281 217.109375 202.488281 217.207031 C 202.992188 217.300781 203.496094 217.351562 204.007812 217.351562 L 205 217.351562 C 205.535156 217.351562 206.066406 217.296875 206.59375 217.191406 C 207.117188 217.089844 207.628906 216.933594 208.125 216.726562 C 208.617188 216.523438 209.089844 216.269531 209.535156 215.972656 C 209.980469 215.675781 210.390625 215.335938 210.769531 214.957031 C 211.148438 214.578125 211.488281 214.167969 211.785156 213.722656 C 212.085938 213.277344 212.335938 212.804688 212.542969 212.308594 C 212.746094 211.816406 212.902344 211.304688 213.007812 210.78125 C 213.113281 210.253906 213.164062 209.722656 213.164062 209.1875 L 213.164062 146.949219 C 213.164062 146.414062 213.113281 145.882812 213.007812 145.355469 C 212.902344 144.832031 212.746094 144.320312 212.542969 143.824219 C 212.335938 143.328125 212.085938 142.859375 211.785156 142.414062 C 211.488281 141.96875 211.152344 141.554688 210.769531 141.175781 C 210.390625 140.796875 209.980469 140.460938 209.535156 140.160156 C 209.089844 139.863281 208.617188 139.613281 208.125 139.40625 C 207.628906 139.203125 207.117188 139.046875 206.59375 138.941406 C 206.066406 138.835938 205.535156 138.785156 205 138.78125 Z M 169.691406 159.148438 C 178.664062 157.050781 187.378906 154.179688 195.84375 150.535156 L 195.84375 205.597656 C 187.378906 201.957031 178.664062 199.085938 169.691406 196.984375 Z M 165.878906 196.144531 C 164.066406 195.769531 162.242188 195.433594 160.414062 195.125 L 160.414062 161.011719 C 162.242188 160.699219 164.066406 160.363281 165.878906 159.988281 Z M 117.453125 178.066406 C 117.453125 177.09375 117.550781 176.128906 117.742188 175.171875 C 117.933594 174.21875 118.214844 173.292969 118.585938 172.390625 C 118.960938 171.492188 119.417969 170.636719 119.960938 169.828125 C 120.5 169.019531 121.117188 168.269531 121.804688 167.578125 C 122.492188 166.890625 123.242188 166.277344 124.050781 165.734375 C 124.863281 165.195312 125.714844 164.734375 126.617188 164.363281 C 127.515625 163.988281 128.441406 163.707031 129.398438 163.515625 C 130.351562 163.324219 131.316406 163.230469 132.292969 163.230469 L 134.089844 163.230469 C 141.632812 163.230469 149.136719 162.691406 156.605469 161.609375 L 156.605469 194.523438 C 149.136719 193.445312 141.632812 192.90625 134.089844 192.90625 L 132.292969 192.90625 C 131.316406 192.90625 130.351562 192.808594 129.398438 192.617188 C 128.441406 192.425781 127.515625 192.144531 126.617188 191.773438 C 125.714844 191.398438 124.863281 190.941406 124.050781 190.398438 C 123.242188 189.859375 122.492188 189.242188 121.804688 188.554688 C 121.117188 187.867188 120.5 187.117188 119.960938 186.308594 C 119.417969 185.496094 118.960938 184.644531 118.585938 183.742188 C 118.214844 182.84375 117.933594 181.917969 117.742188 180.960938 C 117.550781 180.003906 117.453125 179.042969 117.453125 178.066406 Z M 149.425781 231.277344 C 149.050781 231.433594 148.664062 231.511719 148.261719 231.515625 C 147.855469 231.515625 147.46875 231.441406 147.09375 231.289062 C 146.722656 231.136719 146.390625 230.917969 146.105469 230.636719 C 145.816406 230.351562 145.59375 230.023438 145.4375 229.652344 L 131.574219 196.679688 C 131.816406 196.6875 132.050781 196.714844 132.292969 196.714844 L 134.089844 196.714844 C 135.46875 196.714844 136.847656 196.734375 138.21875 196.769531 L 151.050781 227.292969 C 151.207031 227.664062 151.285156 228.050781 151.289062 228.457031 C 151.289062 228.859375 151.214844 229.246094 151.0625 229.621094 C 150.910156 229.996094 150.691406 230.324219 150.40625 230.613281 C 150.125 230.898438 149.796875 231.121094 149.425781 231.277344 Z M 150.355469 202.722656 C 149.792969 203.425781 149.089844 203.949219 148.253906 204.289062 C 147.417969 204.628906 146.554688 204.742188 145.65625 204.628906 L 142.425781 196.941406 C 145.375 197.101562 148.308594 197.34375 151.230469 197.675781 C 151.539062 198.535156 151.613281 199.414062 151.457031 200.316406 C 151.300781 201.214844 150.933594 202.015625 150.355469 202.722656 Z M 209.355469 209.1875 C 209.355469 209.472656 209.328125 209.757812 209.269531 210.035156 C 209.214844 210.316406 209.132812 210.589844 209.023438 210.851562 C 208.914062 211.117188 208.777344 211.367188 208.621094 211.605469 C 208.460938 211.84375 208.28125 212.0625 208.078125 212.265625 C 207.875 212.464844 207.65625 212.648438 207.417969 212.804688 C 207.179688 212.964844 206.929688 213.097656 206.664062 213.207031 C 206.402344 213.316406 206.128906 213.402344 205.847656 213.457031 C 205.570312 213.511719 205.285156 213.539062 205 213.542969 L 204.007812 213.542969 C 203.722656 213.539062 203.4375 213.511719 203.160156 213.457031 C 202.878906 213.402344 202.605469 213.316406 202.34375 213.207031 C 202.078125 213.097656 201.828125 212.964844 201.589844 212.804688 C 201.351562 212.648438 201.132812 212.464844 200.929688 212.265625 C 200.730469 212.0625 200.546875 211.84375 200.390625 211.605469 C 200.230469 211.367188 200.097656 211.117188 199.988281 210.851562 C 199.875 210.589844 199.792969 210.316406 199.738281 210.035156 C 199.683594 209.757812 199.652344 209.472656 199.652344 209.1875 L 199.652344 146.949219 C 199.652344 146.664062 199.683594 146.378906 199.738281 146.097656 C 199.792969 145.820312 199.875 145.546875 199.984375 145.28125 C 200.09375 145.019531 200.230469 144.769531 200.390625 144.53125 C 200.546875 144.292969 200.726562 144.074219 200.929688 143.871094 C 201.132812 143.667969 201.351562 143.488281 201.589844 143.328125 C 201.828125 143.171875 202.078125 143.035156 202.34375 142.925781 C 202.605469 142.816406 202.878906 142.734375 203.160156 142.679688 C 203.4375 142.621094 203.722656 142.59375 204.007812 142.59375 L 205 142.59375 C 205.285156 142.59375 205.570312 142.621094 205.851562 142.679688 C 206.128906 142.734375 206.402344 142.816406 206.667969 142.925781 C 206.929688 143.035156 207.179688 143.171875 207.417969 143.328125 C 207.65625 143.488281 207.875 143.667969 208.078125 143.871094 C 208.28125 144.074219 208.460938 144.292969 208.621094 144.53125 C 208.777344 144.769531 208.914062 145.019531 209.023438 145.28125 C 209.132812 145.546875 209.214844 145.820312 209.269531 146.097656 C 209.328125 146.378906 209.355469 146.664062 209.355469 146.949219 Z M 256.324219 172.148438 L 236.816406 172.148438 C 236.425781 172.148438 236.042969 172.183594 235.660156 172.261719 C 235.277344 172.335938 234.90625 172.449219 234.546875 172.597656 C 234.1875 172.746094 233.847656 172.925781 233.523438 173.144531 C 233.199219 173.359375 232.902344 173.605469 232.625 173.878906 C 232.351562 174.152344 232.105469 174.453125 231.886719 174.777344 C 231.671875 175.097656 231.488281 175.441406 231.339844 175.800781 C 231.191406 176.160156 231.078125 176.53125 231.003906 176.910156 C 230.925781 177.292969 230.886719 177.679688 230.886719 178.066406 C 230.886719 178.457031 230.925781 178.84375 231.003906 179.222656 C 231.078125 179.605469 231.191406 179.976562 231.339844 180.335938 C 231.488281 180.695312 231.671875 181.035156 231.886719 181.359375 C 232.105469 181.683594 232.351562 181.980469 232.625 182.257812 C 232.902344 182.53125 233.199219 182.777344 233.523438 182.992188 C 233.847656 183.207031 234.1875 183.390625 234.546875 183.539062 C 234.90625 183.6875 235.277344 183.800781 235.660156 183.875 C 236.042969 183.949219 236.425781 183.988281 236.816406 183.988281 L 256.324219 183.988281 C 256.714844 183.988281 257.101562 183.949219 257.480469 183.875 C 257.863281 183.800781 258.234375 183.6875 258.59375 183.539062 C 258.953125 183.390625 259.296875 183.207031 259.617188 182.992188 C 259.941406 182.777344 260.242188 182.53125 260.515625 182.257812 C 260.792969 181.980469 261.039062 181.683594 261.253906 181.359375 C 261.472656 181.035156 261.652344 180.695312 261.800781 180.335938 C 261.953125 179.976562 262.0625 179.605469 262.140625 179.222656 C 262.214844 178.84375 262.253906 178.457031 262.253906 178.066406 C 262.253906 177.679688 262.214844 177.292969 262.140625 176.910156 C 262.0625 176.53125 261.953125 176.160156 261.800781 175.800781 C 261.652344 175.441406 261.472656 175.097656 261.253906 174.777344 C 261.039062 174.453125 260.792969 174.152344 260.515625 173.878906 C 260.242188 173.605469 259.941406 173.359375 259.617188 173.144531 C 259.296875 172.925781 258.953125 172.746094 258.59375 172.597656 C 258.234375 172.449219 257.863281 172.335938 257.480469 172.261719 C 257.101562 172.183594 256.714844 172.148438 256.324219 172.148438 Z M 256.324219 180.175781 L 236.816406 180.175781 C 236.535156 180.179688 236.265625 180.125 236.007812 180.019531 C 235.75 179.910156 235.519531 179.757812 235.320312 179.5625 C 235.121094 179.363281 234.96875 179.136719 234.863281 178.875 C 234.753906 178.617188 234.699219 178.347656 234.699219 178.066406 C 234.699219 177.789062 234.753906 177.519531 234.863281 177.257812 C 234.96875 177 235.121094 176.773438 235.320312 176.574219 C 235.519531 176.375 235.75 176.222656 236.007812 176.117188 C 236.265625 176.011719 236.535156 175.957031 236.816406 175.957031 L 256.324219 175.957031 C 256.605469 175.957031 256.875 176.011719 257.136719 176.117188 C 257.394531 176.222656 257.621094 176.375 257.820312 176.574219 C 258.019531 176.773438 258.171875 177 258.28125 177.257812 C 258.386719 177.519531 258.441406 177.789062 258.441406 178.066406 C 258.441406 178.347656 258.386719 178.617188 258.28125 178.875 C 258.171875 179.136719 258.019531 179.363281 257.820312 179.5625 C 257.621094 179.757812 257.394531 179.910156 257.136719 180.019531 C 256.875 180.125 256.605469 180.179688 256.324219 180.175781 Z M 230.078125 161.503906 C 230.863281 161.503906 231.617188 161.355469 232.34375 161.054688 C 233.070312 160.757812 233.710938 160.328125 234.265625 159.773438 L 244.136719 149.898438 C 244.410156 149.625 244.65625 149.328125 244.875 149.003906 C 245.089844 148.679688 245.273438 148.339844 245.421875 147.980469 C 245.570312 147.621094 245.683594 147.25 245.757812 146.867188 C 245.835938 146.488281 245.871094 146.101562 245.871094 145.714844 C 245.871094 145.324219 245.835938 144.941406 245.757812 144.558594 C 245.683594 144.175781 245.570312 143.808594 245.421875 143.449219 C 245.273438 143.089844 245.089844 142.746094 244.875 142.425781 C 244.660156 142.101562 244.414062 141.800781 244.136719 141.527344 C 243.863281 141.25 243.5625 141.007812 243.242188 140.789062 C 242.917969 140.574219 242.578125 140.390625 242.21875 140.242188 C 241.859375 140.09375 241.488281 139.980469 241.105469 139.90625 C 240.726562 139.832031 240.339844 139.792969 239.949219 139.792969 C 239.5625 139.792969 239.175781 139.832031 238.796875 139.90625 C 238.414062 139.984375 238.042969 140.097656 237.683594 140.246094 C 237.324219 140.394531 236.984375 140.578125 236.660156 140.792969 C 236.339844 141.007812 236.039062 141.253906 235.765625 141.527344 L 225.894531 151.402344 C 225.480469 151.816406 225.132812 152.28125 224.855469 152.796875 C 224.582031 153.3125 224.386719 153.859375 224.273438 154.433594 C 224.15625 155.007812 224.128906 155.585938 224.1875 156.167969 C 224.242188 156.75 224.382812 157.3125 224.609375 157.851562 C 224.832031 158.394531 225.128906 158.890625 225.5 159.34375 C 225.875 159.796875 226.300781 160.183594 226.789062 160.507812 C 227.277344 160.832031 227.800781 161.082031 228.359375 161.25 C 228.921875 161.421875 229.492188 161.503906 230.078125 161.503906 Z M 228.585938 154.097656 L 238.457031 144.222656 C 238.65625 144.027344 238.882812 143.875 239.144531 143.765625 C 239.402344 143.660156 239.671875 143.605469 239.949219 143.605469 C 240.230469 143.605469 240.5 143.660156 240.757812 143.769531 C 241.015625 143.875 241.242188 144.027344 241.441406 144.226562 C 241.636719 144.421875 241.789062 144.648438 241.898438 144.910156 C 242.003906 145.167969 242.058594 145.433594 242.058594 145.714844 C 242.058594 145.996094 242.003906 146.261719 241.898438 146.523438 C 241.792969 146.78125 241.640625 147.007812 241.441406 147.207031 L 231.570312 157.078125 C 231.371094 157.277344 231.144531 157.429688 230.886719 157.535156 C 230.625 157.644531 230.359375 157.695312 230.078125 157.695312 C 229.796875 157.695312 229.527344 157.644531 229.269531 157.535156 C 229.011719 157.429688 228.785156 157.277344 228.585938 157.078125 C 228.386719 156.882812 228.234375 156.652344 228.128906 156.394531 C 228.023438 156.136719 227.96875 155.867188 227.96875 155.585938 C 227.96875 155.308594 228.023438 155.039062 228.128906 154.78125 C 228.238281 154.523438 228.390625 154.292969 228.585938 154.097656 Z M 234.265625 196.363281 C 233.988281 196.085938 233.691406 195.84375 233.367188 195.625 C 233.042969 195.410156 232.703125 195.226562 232.34375 195.078125 C 231.984375 194.929688 231.613281 194.816406 231.234375 194.742188 C 230.851562 194.667969 230.46875 194.628906 230.078125 194.628906 C 229.691406 194.628906 229.304688 194.667969 228.921875 194.742188 C 228.542969 194.816406 228.171875 194.929688 227.8125 195.078125 C 227.453125 195.226562 227.113281 195.410156 226.789062 195.625 C 226.464844 195.84375 226.167969 196.085938 225.894531 196.363281 C 225.617188 196.636719 225.371094 196.9375 225.15625 197.257812 C 224.941406 197.582031 224.757812 197.921875 224.609375 198.28125 C 224.460938 198.640625 224.347656 199.011719 224.273438 199.394531 C 224.195312 199.773438 224.160156 200.160156 224.160156 200.546875 C 224.160156 200.9375 224.195312 201.320312 224.273438 201.703125 C 224.347656 202.082031 224.460938 202.453125 224.609375 202.8125 C 224.757812 203.171875 224.941406 203.511719 225.15625 203.835938 C 225.371094 204.160156 225.617188 204.457031 225.894531 204.734375 L 235.765625 214.605469 C 236.039062 214.882812 236.339844 215.125 236.660156 215.34375 C 236.984375 215.558594 237.324219 215.742188 237.683594 215.890625 C 238.042969 216.039062 238.414062 216.152344 238.796875 216.226562 C 239.175781 216.300781 239.5625 216.339844 239.949219 216.339844 C 240.339844 216.339844 240.722656 216.300781 241.105469 216.226562 C 241.488281 216.152344 241.855469 216.039062 242.214844 215.890625 C 242.574219 215.742188 242.917969 215.558594 243.238281 215.34375 C 243.5625 215.125 243.863281 214.882812 244.136719 214.605469 C 244.410156 214.332031 244.65625 214.03125 244.875 213.710938 C 245.089844 213.386719 245.273438 213.046875 245.421875 212.6875 C 245.570312 212.328125 245.679688 211.957031 245.757812 211.574219 C 245.832031 211.195312 245.871094 210.808594 245.871094 210.421875 C 245.871094 210.03125 245.832031 209.648438 245.757812 209.265625 C 245.679688 208.882812 245.570312 208.515625 245.421875 208.15625 C 245.273438 207.796875 245.089844 207.453125 244.875 207.132812 C 244.65625 206.808594 244.410156 206.507812 244.136719 206.234375 Z M 241.441406 211.914062 C 241.246094 212.109375 241.015625 212.261719 240.757812 212.371094 C 240.5 212.476562 240.230469 212.53125 239.949219 212.53125 C 239.671875 212.53125 239.402344 212.476562 239.144531 212.371094 C 238.886719 212.261719 238.65625 212.109375 238.457031 211.914062 L 228.585938 202.039062 C 228.390625 201.839844 228.238281 201.613281 228.132812 201.355469 C 228.023438 201.097656 227.972656 200.828125 227.972656 200.546875 C 227.972656 200.269531 228.027344 200 228.132812 199.742188 C 228.238281 199.484375 228.390625 199.257812 228.589844 199.058594 C 228.785156 198.863281 229.015625 198.710938 229.273438 198.601562 C 229.53125 198.496094 229.800781 198.441406 230.078125 198.441406 C 230.359375 198.441406 230.628906 198.496094 230.886719 198.601562 C 231.144531 198.707031 231.371094 198.859375 231.570312 199.054688 L 241.441406 208.929688 C 241.640625 209.125 241.792969 209.355469 241.898438 209.613281 C 242.007812 209.871094 242.058594 210.140625 242.058594 210.421875 C 242.058594 210.699219 242.007812 210.96875 241.898438 211.226562 C 241.792969 211.484375 241.640625 211.714844 241.441406 211.914062 Z M 241.441406 211.914062 " fill-opacity="1" fill-rule="nonzero"/></g></svg>